<?xml version="1.0" encoding="UTF-8"?>
<svg id="Layer_2" data-name="Layer 2" xmlns="http://www.w3.org/2000/svg" viewBox="0 0 269.29 269.29">
  <defs>
    <style>
      .cls-1 {
        fill: #db7aa6;
      }

      .cls-2 {
        fill: #fdab20;
      }

      .cls-3 {
        fill: #a08ac3;
      }

      .cls-4 {
        fill: #231f20;
      }

      .cls-5 {
        fill: #f6e20c;
      }

      .cls-6 {
        fill: #bad638;
      }

      .cls-7 {
        fill: #fb7053;
      }

      .cls-8 {
        opacity: .9;
      }

      .cls-9 {
        fill: #67ade2;
      }

      .cls-10 {
        fill: #61bf94;
      }
    </style>
  </defs>
  <g id="Layer_1-2" data-name="Layer 1">
    <rect class="cls-4" width="269.29" height="269.29" rx="24.17" ry="24.17"/>
    <g>
      <g class="cls-8">
        <path class="cls-9" d="M125.26,116.44l-38.38-35.06c-1.49-1.36-1.1-3.8.74-4.63l37.52-16.91c1.84-.83,3.93.5,3.96,2.51l.86,51.98c.04,2.46-2.88,3.78-4.7,2.12Z"/>
        <ellipse class="cls-9" cx="105.79" cy="67" rx="25.97" ry="30.64" transform="translate(-18.19 49.4) rotate(-24.27)"/>
        <g>
          <ellipse class="cls-9" cx="104.61" cy="95.96" rx="11.3" ry="10.63" transform="translate(-30.19 51.47) rotate(-24.27)"/>
          <ellipse class="cls-9" cx="128.28" cy="85.29" rx="11.3" ry="10.63" transform="translate(-23.72 60.25) rotate(-24.27)"/>
        </g>
      </g>
      <g class="cls-8">
        <path class="cls-10" d="M113.76,128.71l-51.93,2.34c-2.02.09-3.47-1.91-2.75-3.8l14.57-38.49c.71-1.89,3.13-2.43,4.58-1.02l37.36,36.14c1.77,1.71.63,4.71-1.82,4.82Z"/>
        <ellipse class="cls-10" cx="65.03" cy="107.51" rx="25.97" ry="30.64" transform="translate(-58.53 130.27) rotate(-69.27)"/>
        <g>
          <ellipse class="cls-10" cx="84.68" cy="128.82" rx="11.3" ry="10.63" transform="translate(-65.78 162.41) rotate(-69.27)"/>
          <ellipse class="cls-10" cx="93.87" cy="104.54" rx="11.3" ry="10.63" transform="translate(-37.13 155.32) rotate(-69.27)"/>
        </g>
      </g>
      <g class="cls-8">
        <path class="cls-6" d="M115.81,145.36l-35.06,38.38c-1.36,1.49-3.8,1.1-4.63-.74l-16.91-37.52c-.83-1.84.5-3.93,2.51-3.96l51.98-.86c2.46-.04,3.78,2.88,2.12,4.7Z"/>
        <ellipse class="cls-6" cx="66.36" cy="164.82" rx="30.64" ry="25.97" transform="translate(-61.87 41.83) rotate(-24.27)"/>
        <g>
          <ellipse class="cls-6" cx="95.32" cy="166.01" rx="10.63" ry="11.3" transform="translate(-59.8 53.84) rotate(-24.27)"/>
          <ellipse class="cls-6" cx="84.65" cy="142.33" rx="10.63" ry="11.3" transform="translate(-51.01 47.36) rotate(-24.27)"/>
        </g>
      </g>
      <g class="cls-8">
        <path class="cls-5" d="M129.36,155.38l2.34,51.93c.09,2.02-1.91,3.47-3.8,2.75l-38.49-14.57c-1.89-.71-2.43-3.13-1.02-4.58l36.14-37.36c1.71-1.77,4.71-.63,4.82,1.82Z"/>
        <ellipse class="cls-5" cx="108.16" cy="204.11" rx="30.64" ry="25.97" transform="translate(-121.03 233) rotate(-69.27)"/>
        <g>
          <ellipse class="cls-5" cx="129.48" cy="184.47" rx="10.63" ry="11.3" transform="translate(-88.89 240.25) rotate(-69.27)"/>
          <ellipse class="cls-5" cx="105.19" cy="175.28" rx="10.63" ry="11.3" transform="translate(-95.98 211.6) rotate(-69.27)"/>
        </g>
      </g>
      <g class="cls-8">
        <path class="cls-2" d="M145.4,153.96l38.38,35.06c1.49,1.36,1.1,3.8-.74,4.63l-37.52,16.91c-1.84.83-3.93-.5-3.96-2.51l-.86-51.98c-.04-2.46,2.88-3.78,4.7-2.12Z"/>
        <ellipse class="cls-2" cx="164.86" cy="203.41" rx="25.97" ry="30.64" transform="translate(-69.03 85.72) rotate(-24.26)"/>
        <g>
          <ellipse class="cls-2" cx="166.05" cy="174.45" rx="11.3" ry="10.63" transform="translate(-57.02 83.65) rotate(-24.27)"/>
          <ellipse class="cls-2" cx="142.37" cy="185.12" rx="11.3" ry="10.63" transform="translate(-63.5 74.86) rotate(-24.27)"/>
        </g>
      </g>
      <g class="cls-8">
        <path class="cls-7" d="M153.7,145.41l37.36,36.14c1.45,1.4,3.86.86,4.58-1.02l14.57-38.49c.71-1.89-.74-3.89-2.75-3.8l-51.93,2.34c-2.46.11-3.59,3.11-1.82,4.82Z"/>
        <ellipse class="cls-7" cx="204.26" cy="161.79" rx="25.97" ry="30.64" transform="translate(-19.37 295.54) rotate(-69.26)"/>
        <g>
          <ellipse class="cls-7" cx="175.42" cy="164.76" rx="11.3" ry="10.63" transform="translate(-40.77 270.48) rotate(-69.26)"/>
          <ellipse class="cls-7" cx="184.61" cy="140.47" rx="11.3" ry="10.63" transform="translate(-12.12 263.39) rotate(-69.26)"/>
        </g>
      </g>
      <g class="cls-8">
        <path class="cls-3" d="M140.75,113.91l-2.34-51.93c-.09-2.02,1.91-3.47,3.8-2.75l38.49,14.57c1.89.71,2.43,3.13,1.02,4.58l-36.14,37.36c-1.71,1.77-4.71.63-4.82-1.82Z"/>
        <ellipse class="cls-3" cx="161.95" cy="65.18" rx="30.64" ry="25.97" transform="translate(43.66 193.56) rotate(-69.27)"/>
        <g>
          <ellipse class="cls-3" cx="140.63" cy="84.82" rx="10.63" ry="11.3" transform="translate(11.51 186.31) rotate(-69.27)"/>
          <ellipse class="cls-3" cx="164.92" cy="94.02" rx="10.63" ry="11.3" transform="translate(18.6 214.97) rotate(-69.27)"/>
        </g>
      </g>
      <g class="cls-8">
        <path class="cls-1" d="M154,125.03l35.06-38.38c1.36-1.49,3.8-1.1,4.63.74l16.91,37.52c.83,1.84-.5,3.93-2.51,3.96l-51.98.86c-2.46.04-3.78-2.88-2.12-4.7Z"/>
        <ellipse class="cls-1" cx="203.44" cy="105.56" rx="30.64" ry="25.97" transform="translate(-25.41 92.93) rotate(-24.27)"/>
        <g>
          <ellipse class="cls-1" cx="174.48" cy="104.38" rx="10.63" ry="11.3" transform="translate(-27.48 80.93) rotate(-24.27)"/>
          <ellipse class="cls-1" cx="185.15" cy="128.05" rx="10.63" ry="11.3" transform="translate(-36.27 87.4) rotate(-24.27)"/>
        </g>
      </g>
    </g>
  </g>
</svg>