<?xml version="1.0" encoding="UTF-8"?>
<svg id="Layer_2" data-name="Layer 2" xmlns="http://www.w3.org/2000/svg" viewBox="0 0 198.32 198.32">
  <defs>
    <style>
      .cls-1 {
        fill: #db7aa6;
      }

      .cls-2 {
        fill: #fdab20;
      }

      .cls-3 {
        fill: #a08ac3;
      }

      .cls-4 {
        fill: #f6e20c;
      }

      .cls-5 {
        fill: #bad638;
      }

      .cls-6 {
        fill: #fb7053;
      }

      .cls-7 {
        opacity: .9;
      }

      .cls-8 {
        fill: #67ade2;
      }

      .cls-9 {
        fill: #61bf94;
      }
    </style>
  </defs>
  <g id="Layer_1-2" data-name="Layer 1">
    <rect width="198.32" height="198.32" rx="24.17" ry="24.17"/>
    <g>
      <g class="cls-7">
        <path class="cls-8" d="M93.23,93.19l-38.38-35.06c-1.49-1.36-1.1-3.8.74-4.63l37.52-16.91c1.84-.83,3.93.5,3.96,2.51l.86,51.98c.04,2.46-2.88,3.78-4.7,2.12Z"/>
        <ellipse class="cls-8" cx="73.76" cy="43.74" rx="25.97" ry="30.64" transform="translate(-11.46 34.18) rotate(-24.27)"/>
        <g>
          <ellipse class="cls-8" cx="72.58" cy="72.7" rx="11.3" ry="10.63" transform="translate(-23.46 36.25) rotate(-24.27)"/>
          <ellipse class="cls-8" cx="96.25" cy="62.03" rx="11.3" ry="10.63" transform="translate(-16.99 45.04) rotate(-24.27)"/>
        </g>
      </g>
      <g class="cls-7">
        <path class="cls-9" d="M91.05,98.59l-51.93,2.34c-2.02.09-3.47-1.91-2.75-3.8l14.57-38.49c.71-1.89,3.13-2.43,4.58-1.02l37.36,36.14c1.77,1.71.63,4.71-1.82,4.82Z"/>
        <ellipse class="cls-9" cx="42.32" cy="77.39" rx="25.97" ry="30.64" transform="translate(-45.04 89.57) rotate(-69.27)"/>
        <g>
          <ellipse class="cls-9" cx="61.96" cy="98.71" rx="11.3" ry="10.63" transform="translate(-52.29 121.71) rotate(-69.27)"/>
          <ellipse class="cls-9" cx="71.16" cy="74.42" rx="11.3" ry="10.63" transform="translate(-23.63 114.62) rotate(-69.27)"/>
        </g>
      </g>
      <g class="cls-7">
        <path class="cls-5" d="M93.48,105.18l-35.06,38.38c-1.36,1.49-3.8,1.1-4.63-.74l-16.91-37.52c-.83-1.84.5-3.93,2.51-3.96l51.98-.86c2.46-.04,3.78,2.88,2.12,4.7Z"/>
        <ellipse class="cls-5" cx="44.03" cy="124.64" rx="30.64" ry="25.97" transform="translate(-47.33 29.11) rotate(-24.27)"/>
        <g>
          <ellipse class="cls-5" cx="73" cy="125.83" rx="10.63" ry="11.3" transform="translate(-45.26 41.12) rotate(-24.27)"/>
          <ellipse class="cls-5" cx="62.33" cy="102.16" rx="10.63" ry="11.3" transform="translate(-36.48 34.64) rotate(-24.27)"/>
        </g>
      </g>
      <g class="cls-7">
        <path class="cls-4" d="M99.04,107.44l2.34,51.93c.09,2.02-1.91,3.47-3.8,2.75l-38.49-14.57c-1.89-.71-2.43-3.13-1.02-4.58l36.14-37.36c1.71-1.77,4.71-.63,4.82,1.82Z"/>
        <ellipse class="cls-4" cx="77.84" cy="156.17" rx="30.64" ry="25.97" transform="translate(-95.78 173.68) rotate(-69.27)"/>
        <g>
          <ellipse class="cls-4" cx="99.16" cy="136.53" rx="10.63" ry="11.3" transform="translate(-63.64 180.93) rotate(-69.27)"/>
          <ellipse class="cls-4" cx="74.87" cy="127.34" rx="10.63" ry="11.3" transform="translate(-70.73 152.27) rotate(-69.27)"/>
        </g>
      </g>
      <g class="cls-7">
        <path class="cls-2" d="M104.61,105.88l38.38,35.06c1.49,1.36,1.1,3.8-.74,4.63l-37.52,16.91c-1.84.83-3.93-.5-3.96-2.51l-.86-51.98c-.04-2.46,2.88-3.78,4.7-2.12Z"/>
        <ellipse class="cls-2" cx="124.07" cy="155.33" rx="25.97" ry="30.64" transform="translate(-52.87 64.71) rotate(-24.26)"/>
        <g>
          <ellipse class="cls-2" cx="125.26" cy="126.37" rx="11.3" ry="10.63" transform="translate(-40.87 62.64) rotate(-24.27)"/>
          <ellipse class="cls-2" cx="101.58" cy="137.04" rx="11.3" ry="10.63" transform="translate(-47.34 53.85) rotate(-24.27)"/>
        </g>
      </g>
      <g class="cls-7">
        <path class="cls-6" d="M105.45,104.55l37.36,36.14c1.45,1.4,3.86.86,4.58-1.02l14.57-38.49c.71-1.89-.74-3.89-2.75-3.8l-51.93,2.34c-2.46.11-3.59,3.11-1.82,4.82Z"/>
        <ellipse class="cls-6" cx="156" cy="120.94" rx="25.97" ry="30.64" transform="translate(-12.33 224.02) rotate(-69.26)"/>
        <g>
          <ellipse class="cls-6" cx="127.17" cy="123.9" rx="11.3" ry="10.63" transform="translate(-33.74 198.97) rotate(-69.26)"/>
          <ellipse class="cls-6" cx="136.36" cy="99.62" rx="11.3" ry="10.63" transform="translate(-5.08 191.88) rotate(-69.26)"/>
        </g>
      </g>
      <g class="cls-7">
        <path class="cls-1" d="M105.87,93.94l35.06-38.38c1.36-1.49,3.8-1.1,4.63.74l16.91,37.52c.83,1.84-.5,3.93-2.51,3.96l-51.98.86c-2.46.04-3.78-2.88-2.12-4.7Z"/>
        <ellipse class="cls-1" cx="155.32" cy="74.48" rx="30.64" ry="25.97" transform="translate(-16.89 70.41) rotate(-24.27)"/>
        <g>
          <ellipse class="cls-1" cx="126.36" cy="73.29" rx="10.63" ry="11.3" transform="translate(-18.96 58.4) rotate(-24.27)"/>
          <ellipse class="cls-1" cx="137.03" cy="96.97" rx="10.63" ry="11.3" transform="translate(-27.74 64.88) rotate(-24.27)"/>
        </g>
      </g>
      <g class="cls-7">
        <path class="cls-3" d="M99.28,90.88l-2.34-51.93c-.09-2.02,1.91-3.47,3.8-2.75l38.49,14.57c1.89.71,2.43,3.13,1.02,4.58l-36.14,37.36c-1.71,1.77-4.71.63-4.82-1.82Z"/>
        <ellipse class="cls-3" cx="120.49" cy="42.15" rx="30.64" ry="25.97" transform="translate(38.41 139.91) rotate(-69.27)"/>
        <g>
          <ellipse class="cls-3" cx="99.17" cy="61.79" rx="10.63" ry="11.3" transform="translate(6.27 132.66) rotate(-69.27)"/>
          <ellipse class="cls-3" cx="123.45" cy="70.99" rx="10.63" ry="11.3" transform="translate(13.36 161.31) rotate(-69.27)"/>
        </g>
      </g>
    </g>
  </g>
</svg>
